<svg xmlns="http://www.w3.org/2000/svg" viewBox="0 0 64 64" role="img" aria-label="Imja favicon">
  <rect width="64" height="64" rx="18" fill="#FAF7F2"/>
  <path d="M18 28 15 15l11 7a22 22 0 0 1 12 0l11-7-3 13a20 20 0 1 1-28 0Z" fill="#D8D2CA" stroke="#8B735D" stroke-width="3" stroke-linejoin="round"/>
  <circle cx="24" cy="34" r="4.2" fill="#2F2924"/>
  <circle cx="40" cy="34" r="4.2" fill="#2F2924"/>
  <path d="M32 40.5 28.5 38h7L32 40.5Z" fill="#8B735D"/>
  <path d="M28 46c2.2 2 5.8 2 8 0" fill="none" stroke="#8B735D" stroke-width="2.5" stroke-linecap="round"/>
  <path d="M19 42h8M37 42h8M20 47l7-2M37 45l7 2" stroke="#8B735D" stroke-width="2" stroke-linecap="round"/>
</svg>
